<?xml version="1.0" encoding="utf-8"?>
<!-- Generator: Adobe Illustrator 24.1.3, SVG Export Plug-In . SVG Version: 6.00 Build 0)  -->
<svg version="1.1" id="Capa_1" xmlns="http://www.w3.org/2000/svg" xmlns:xlink="http://www.w3.org/1999/xlink" x="0px" y="0px"
	 viewBox="0 0 1280 1280" style="enable-background:new 0 0 1280 1280;" xml:space="preserve">
<style type="text/css">
	.st0{fill:#FFFFFF;}
</style>
<g>
	<path class="st0" d="M261.1,360.6c4.8-0.8,9.9-1.6,13.4-5.2c1.8-5,1.1-10.8,0-15.9c0,0-0.1,0-0.1-0.1c0,0,0-0.1,0-0.1l0,0
		c-1.4-0.7-2.1-1.1-4.1-1.2c-4.8-0.8-11.8-0.6-16.3,0.9c-6.5,0.4-13,0.7-19.4,1.1c-1.5,0.1-3,0.1-4.5,0.2c-1.5,0.1-3,0.1-4.4,0.2
		c-5.6,0.2-11.2,0.3-16.9,0.4c-0.5,0-1,0-1.5,0c-16.6,0-16.6,0-33.1-0.5c-5.3-0.1-10.6-0.3-15.8-0.3c-0.8,0-1.6,0-2.3-0.1
		c-1.6-0.1-1.6-0.1-3.2-0.1c-0.3,0-0.5,0-0.8,0c-0.9-0.2-2-0.2-4-0.1c-2.1-0.1-4.2-0.1-6.3-0.3c0,0,0,0,0,0c-0.3,0-0.5,0-0.8-0.1
		c-0.4-0.1-0.8-0.2-1.2-0.2c-2-0.1-4-0.3-6-0.5c-0.7-0.3-1.1-0.6-1.6-0.7c0,0,0-0.1,0-0.1c-0.3,0-0.6,0-0.8,0
		c-0.8-0.1-1.9-0.1-4-0.1c-1,0-1,0-1.9,0c-1.2,0-2.5,0-3.7,0c0,0,0,0,0,0l0,0l0,0c-0.5,0-0.9,0.1-1.3,0.1c-2.3,0.1-3.3,0.5-3.6,3.4
		c0,0.6,0,1.3,0,1.9c0,0.7,0,1.3,0,2c0,0.7,0,1.4,0,2.2c0,2.5,0.1,5,0.1,7.5h1.6v1.6c0.2,0.1,0.4,0.2,0.7,0.4
		c3.7,2.5,5,3.1,12.5,4.1c0.1,0,0.2,0,0.2,0c8.1,1.1,15.5,2.3,22.8,6c1,0.5,2,1,3,1.6c0.8,0.3,1.5,0.5,2.3,0.8
		c1.3,0.5,1.7,0.7,2,1.4c0.1,0.3,0.2,0.6,0.3,1c0.5,1.3,0.7,1.9,1.4,3.8c1.6,5.3,2.5,8.5,3.1,11.5c0,0.1,0,0.3,0,0.4
		c0,2.4,0,2.4,0.4,4.4c0,0,0.1,0,0.1,0.1c0.1,2.7,0.1,6,0.1,10.9c0,1.2,0,2.5,0,3.7c0,3.4,0,6.8,0,10.2c0,3.7,0,7.5,0,11.2
		c0,7.4,0,14.7,0,22c0,6,0,12.1,0,18.1c0,0.9,0,1.7,0,2.6c0,1.7,0,3.5,0,5.2c0,16.3,0,32.7,0,49c0,14,0,28.1,0,42.1
		c0,16.4,0,32.7,0,49.1c0,1.8,0,3.5,0,5.3c0,1.3,0,1.3,0,2.6c0,6,0,12.1,0,18.1c0,7.4,0,14.8,0,22.2c0,2.1,0,4.3,0,6.4
		c-0.7,1.4-0.7,2.8-0.7,4.8c0,0.7,0,1.3,0.1,2c0,1.4,0,2.8,0,4.2c0.1,3.9,0.1,7.8,0.2,11.8c0,1.2,0,1.2,0,2.4
		c0.1,8.8,0,17.7-0.2,26.6c0,0.8,0,1.5-0.1,2.2c-0.2,7.4-0.2,14.9-1,22.3c-0.1,0.7-0.2,1.4-0.2,2.1c-0.1,0.8-0.2,1.6-0.3,2.4
		c0,0,0,0.1,0,0.1c-0.1,0.9-0.2,1.8-0.3,2.6c-0.2,1.8-0.4,3.6-0.6,5.5c-0.1,1.3-0.3,2.6-0.4,3.8c-0.5,3.9-1.1,7.7-2.1,11.6
		c-0.7,2.3-0.9,4.2-0.9,6.2c-0.1,0.6-0.3,1.1-0.4,1.7c-0.2,0.2-0.3,0.4-0.5,0.5c0,0-0.1,0-0.1,0.1c-0.1,0.2-0.1,0.3-0.1,0.4
		c-0.1,0.3-0.2,0.6-0.4,1.2c0,0.2-0.1,0.3-0.1,0.5c0,0.1,0,0.1-0.1,0.2c0,0.1-0.1,0.3-0.1,0.4c-0.7,2.5-1.4,4.9-2.3,7.3
		c-0.6,1.6-1,3-1.3,4.3c-1.2,3-2.3,5.8-3,9c-0.1,0.6-0.2,1-0.3,1.3c-0.1,0.1-0.2,0.1-0.4,0.2v1.6h-1.6c0,0,0,0.1,0,0.1
		c-1.1,2.9-2,5.2-2.7,7.1c-0.2,0.3-0.5,0.8-0.8,1.4c-1.4,3.1-3,6.1-4.8,9h-0.4v0c-0.4,0.5-0.7,1-1.1,1.5c-1.1,2-2.2,4-3.4,5.9
		c0,0,0,0,0,0.1c-0.7,0.9-1.3,1.8-2,2.8c-1.6,2-2.7,3.8-3.5,5.8c-0.4,0.7-0.9,1.4-1.5,2c-1.8,1.7-2.3,2.1-4.1,4.4
		c-0.1,0-0.2-0.1-0.4-0.1v0c-1,1.4-1.9,2.7-2.7,4.1c-1.8,2.3-3.5,4.5-5.8,6.4c-1,0.8-1.5,1.2-1.9,1.5h-0.1h0l0,0
		c-0.4,0.5-0.8,0.9-1.2,1.4c-1.2,1.9-2.6,3.4-4.2,5.1c-1,1-1.3,1.4-1.7,2c-1.2,1-2.3,1.9-3.4,2.9c-1.8,1.1-3.3,2.9-4.3,4.9
		c-0.1,0.2-0.2,0.3-0.3,0.5c0,0.1-0.1,0.3-0.1,0.4c-0.2,0.5-0.4,1-0.6,1.4c-0.7,4.3,0.2,7.2,2.2,11h0h0c0,0,0,0,0,0h0.1
		c0,0,0,0.1,0.1,0.1h1.3v1.4c0,0,0,0,0.1,0v0c0.1,0.1,0.1,0.1,0.2,0.1v0c2.4,1.6,2.4,1.6,4.2,2.3c3.8,0.2,3.8,0.2,16.7-9.6
		c1-0.8,2.1-1.6,3.1-2.3c2.3-1.3,3.7-1.8,4.8-4.1c0.3-0.5,0.5-1,0.8-1.5c1.8-0.4,3-0.7,4.5-1.7l1.3-1.2l1.4-1.3
		c3-2.7,5.9-5.5,9.4-7.6c0.9-0.5,0.9-0.5,1.7-1c1.5-2.3,2.6-3.2,4.8-4.8c1.9-1.3,3-2.1,4.1-4.2c0.4-0.7,0.4-0.7,0.7-1.5
		c1.1-0.3,2.1-0.5,3.2-0.8c0.3-0.5,0.6-1.1,0.8-1.6c0.3-0.5,0.5-1.1,0.8-1.6c3.5-1.2,5.6-3.4,7.4-6.6c0.2-0.5,0.4-0.9,0.6-1.4
		c1.6,0,1.6,0,2.6-1c1.7-2.1,3.4-4.2,5.2-6.3c3-3.4,6.4-6.7,8.3-11c0.2-0.6,0.4-1.2,0.6-1.8h1.6c0.5-0.5,0.9-1.1,1.4-1.6
		c0.5-0.7,1-1.4,1.5-2.1c1.6-2.2,2.7-3.9,3.3-6.5c0.1-0.9,0.1-0.9,0.2-1.7h1.6c9.5-16.6,16.6-33.9,20.6-52.7c0.2-1,0.2-1,0.4-2
		c4.5-21.8,5.3-45.3,5.8-67.6c0-0.7,0-1.4,0-2.1c0.5-21.5,0.5-21.5,0.4-74.5c0-7.4,0-14.7,0-22c0-13.1,0-26.2,0-39.4
		c0-0.8,0-1.6,0-2.4c0-5.5,0-11.1,0-16.6c0-6.4,0-12.7,0-19.1c0-0.8,0-1.6,0-2.4c0-13.2,0-26.4,0-39.6c0-8.2,0-16.2,0-24.3
		c0,0,0-0.1,0-0.1c0-1.7,0.1-3.5,0.1-5.2c0-1.2,0-2.4,0-3.5c0-3.1,0-6.2,0-9.3c0-2.8,0-5.5,0-8.3c0-10.6-0.1-21.2,0.3-31.8
		c0-0.8,0.1-1.5,0.1-2.2c0.1-2.3,0.2-4.6,0.5-6.9c0.5-0.8,1.1-1.6,1.6-2.4c0.8-1.4,1.6-2.7,2.4-4c5.9-4.2,9.1-6.4,12.4-7.9
		c0.3-0.1,0.7-0.2,1-0.3c0.5-0.1,0.9-0.3,1.4-0.4c1.3-0.2,2.6-0.5,4-0.9c0.6-0.2,1.2-0.4,1.8-0.6c0,0,0,0,0,0c0.7-0.2,1.4-0.3,2-0.5
		C256.7,361.3,258.7,360.9,261.1,360.6z"/>
	<path class="st0" d="M1135.4,917.7c0-0.1,0-0.2,0-0.2c-0.2-1.5-0.4-3-0.9-4.3c-0.2-0.5-0.4-1-0.7-1.5c-1.4-3.6-3.7-6.8-6.7-9.5
		c-0.5-0.4-1-0.8-1.5-1.2c-0.5-0.4-1.1-0.9-1.6-1.3c-1.6-1.3-3.2-2.4-4.9-3.4c0-0.1,0-0.1,0-0.2c-2.4-1.6-2.4-1.6-4.6-2.6
		c-0.8-0.3-1.7-0.7-2.5-1c0,0,0,0,0,0c-0.9-0.4-1.8-0.8-2.8-1.2c-0.7-0.3-1.5-0.6-2.2-0.9c-1.5-0.7-1.9-0.9-2.7-1.2
		c-1.2-0.5-2.4-1.1-3.6-1.7c-2.9-1.6-5.8-3.3-8.8-4.6c-0.5-0.2-1-0.4-1.6-0.6v-1.6c-2.1-2.3-3.1-3.5-3.5-6.7
		c0.1-1.4,0.1-1.4,0.1-2.8c0-0.1,0-0.2,0-0.3c0.2-1.1,0.5-2.1,0.9-3.1c0.4-0.8,0.4-0.8,0.8-1.5c0.6-2.5,0.6-2.5,1.6-4.8
		c0.5-0.2,1-0.3,1.4-0.5c1.8-0.3,1.8-0.3,3.4-0.9c3.7-1.4,7-2.2,10.9-2.1c5.8,0.9,11,2.8,14.7,7.5c0.5,0.7,1,1.5,1.5,2.2
		c0.6,0.8,1.1,1.6,1.7,2.4c0.5,0.8,1,1.6,1.6,2.3c1.9,2.1,2.9,2.5,5.6,2.7c0-1.6,0-3.3-0.1-4.9c-0.1-0.6-0.1-1.2-0.2-1.8
		c-0.1-0.7-0.1-1.3-0.2-1.9c-0.1-0.7-0.2-1.3-0.2-2c-0.3-2.3-0.5-4.7-0.8-7h-1.6V856l-0.1,0c-10.6-4.4-25.4-6.9-36.4-2.4
		c-4.3,2.1-8.8,4.1-10.6,8.8c0,0-0.1,0-0.1,0v0.5c0,0.4-0.1,0.7-0.1,1.1h-1.5c0,0,0,0,0,0h-0.1c-0.3,0.5-0.5,1.1-0.8,1.6
		c-2.7,7.4-3.7,14.8-0.7,22.3c0,0,0,0,0,0c0,0,0,0,0,0c0.1,0.1,0.2,0.3,0.3,0.4c2,3.2,4.4,5.9,7,8.1c0,0.1-0.1,0.2-0.1,0.4
		c0.9,0.6,1.8,1.1,2.7,1.6c2.9,2,6.2,3.7,9.7,5.2c0.6,0.3,1.3,0.5,1.9,0.8c0.6,0.2,1.3,0.5,1.9,0.8c1.3,0.5,2.6,1.1,3.8,1.6
		c1.6,0.8,3.1,1.5,4.6,2.2c0.1,0.1,0.2,0.1,0.4,0.2c2.5,1.2,4.5,2.3,6.6,4c0.2,0.2,0.4,0.3,0.5,0.5c1.2,1.3,2.1,2.5,2.8,3.9
		c0.1,0.1,0.1,0.2,0.2,0.3c0.1,0.2,0.2,0.4,0.3,0.6c1,2.2,1.4,4.6,1.5,7.4c-0.2,3.5-0.9,6-2.4,8.5c-0.7,1.1-1.6,2.2-2.7,3.4
		c-2.2,1.4-4.6,2.2-7,2.7c-3.8,0.5-7.6,0.4-11.5,0c-1-0.1-2-0.3-3-0.4c-2-0.8-3.9-1.9-5.7-3.1c-2.9-2.1-5.3-4.9-7.1-8
		c-1.6-3.8-3.1-7.2-5.6-10.4c0,0,0,0,0,0c0,0,0,0,0,0c-1.8-0.7-1.8-0.7-3.2-0.8c0,0,0,0,0,0c0,0,0,0,0,0c-0.8,1.6-0.8,1.6-0.9,3.1
		c0,0.9,0,0.9,0,1.7c0,1.7,0,1.7,0.1,3.2c1,1.7,1,1.7,1,4.4c0.2,3.4,0.6,6.7,1.4,10c1.2,1.9,2,2.4,4.1,3.3c0.8,0.2,1.5,0.4,2.3,0.7
		c5.7,1.8,11.7,3,17.7,3.4v0.6h8v-0.4c1.2-0.1,2.4-0.1,3.6-0.3c2.3-0.2,4.4-0.5,6.5-1c0.1,0,0.1,0,0.2,0c4.1-1.2,7.7-2.6,10-6.4
		c0,0,0,0,0,0c0,0,0,0,0,0c0.2-0.5,0.3-0.9,0.5-1.4h1.6c1.1-1.2,1.9-2.5,2.6-3.9c0.1-0.2,0.3-0.5,0.4-0.7c2.4-4.7,3.4-10.6,2.8-16
		C1135.4,917.8,1135.4,917.7,1135.4,917.7z M1073.6,921.6h0.8v4h-0.8V921.6z"/>
	<path class="st0" d="M777.6,742.4c-0.2-0.3-0.4-0.6-0.7-0.8c-0.1-0.1-0.2-0.2-0.2-0.3c-0.2-0.4-0.5-0.8-0.8-1.2
		c-4.2-4.2-12-5.5-18.6-6.1c0,0,0,0,0,0c-2.7-0.7-5.3-1.4-8-2c-1.2-0.4-2.3-0.8-3.5-1.2c-1-1-2.1-1.4-5.6-2.8
		c-0.6-0.2-1.2-0.5-1.8-0.7c-0.2-0.1-0.4-0.1-0.6-0.2c-0.6-0.4-1.3-0.8-1.9-1.2c-1.3-0.9-2.6-1.8-4-2.6c-0.4-0.2-0.7-0.3-1-0.5
		c-0.3-0.2-0.5-0.3-0.8-0.5c-0.2-0.1-0.4-0.2-0.5-0.2c-0.3-0.2-0.6-0.5-0.9-0.9c0-1.2-0.1-1.4-1-3.2c-0.3-0.6-0.6-1.1-0.8-1.7
		c-0.2-0.5-0.4-1.1-0.8-2c-1.3-2.9-2.5-5.9-3.7-8.9c-0.5-1.4-1.1-2.7-1.6-4.1c-0.3-0.7-0.5-1.4-0.8-2c-2-4.9-3.9-9.8-5.9-14.7
		c-0.3-0.8-0.6-1.5-0.9-2.2c-0.9-2.1-1.7-4.2-2.7-6.3c-1-2.3-2-4.6-3-7c-0.3-0.8-0.5-1.4-0.8-1.9c-0.7-1.7-1.3-3.4-2-5
		c-0.3-0.8-0.6-1.5-0.9-2.3c0.2-2.1-0.8-4.3-4.6-12c-1.3-3.2-2.6-6.5-4-9.7c-2-4.5-3.9-9.1-5.7-13.7c-0.6-1.4-1.1-2.9-1.7-4.4
		c0-0.4-0.1-0.8-0.3-1.5c-0.4-1.1-0.4-1.1-0.9-2.2c-0.8-2-1.6-4-2.6-5.9c-1.5-3.7-2.9-7.4-4.5-11c-0.2-0.4-0.4-0.8-0.5-1.2
		c-0.2-0.5-0.3-0.8-0.6-1.7c-0.5-1.3-0.7-1.8-1.1-2.2c-0.7-1.6-1.3-3.3-2-4.9c-0.2-1-0.6-2-1-3.1c-0.2-0.6-0.4-1.1-0.7-1.6
		c-1-2.6-2-5.1-3.1-7.5c-0.1-0.2-0.2-0.5-0.3-0.7c-3.3-7-3.3-7-5.9-14.2c-1.8-4.9-3.4-9.9-5.7-14.6c-0.1-0.4-0.3-0.7-0.4-1.2
		c-0.8-1.4-1.5-2.9-2.2-4.4c-0.9-2-1.7-4.1-2.5-6.2c-0.7-1.8-1.3-3.6-2-5.3c-0.3-0.8-0.5-1.7-0.8-2.5c-0.9-2.9-0.9-2.9-2-5
		c-0.2-0.1-0.3-0.1-0.5-0.2c-0.3-0.8-0.7-1.6-1-2.4c-1.7-4.7-3.4-9.3-5.3-13.9c-0.2-0.4-0.3-0.8-0.4-1.2c-0.7-2.1-1.4-4.1-2.4-5.9
		c-0.6-1.4-1.1-2.7-1.7-4.1c-0.3-0.7-0.6-1.4-0.8-2.1c-0.8-2-1.6-3.9-2.3-5.9c-0.5-1.3-1-2.6-1.6-3.8c-0.3-0.7-0.6-1.4-0.9-2.2
		c-0.9-2-1.9-4.1-2.9-6.1c-0.1-0.2-0.2-0.4-0.3-0.6c-0.7-1.5-1.3-3.1-1.9-4.8c-0.1-0.2-0.2-0.5-0.2-0.7c0-0.6,0-1.1-0.1-2.2
		c-0.5-0.8-0.9-1.3-1.2-1.7c-0.6-1.7-1.3-3.4-2-5.1c-0.5-1.3-1-2.5-1.5-3.8c-0.1-0.2-0.1-0.3-0.2-0.5c-0.4-1.1-0.8-2.2-1.3-3.3
		c-0.6-1.3-1.1-2.7-1.7-4c-0.5-1.2-1-2.4-1.5-3.6c-0.3-0.6-0.5-1.2-0.8-1.8c-0.2-0.6-0.5-1.2-0.7-1.8c-0.4-0.9-0.4-0.9-0.7-1.7
		c-0.4-1-0.8-2-1.3-3c-0.8-1.6-1.6-3.2-2.2-4.8c-0.1-0.2-0.1-0.4-0.2-0.6c-0.1-0.6-0.3-1.2-0.7-2.7c-0.4-1-0.7-2-1-3
		c-0.7-2-1.4-3.7-2.2-5.3c-0.3-0.8-0.6-1.6-0.9-2.3c-0.1-0.2-0.1-0.4-0.2-0.5c0-0.1-0.1-0.2-0.1-0.3c-0.3-0.8-0.7-1.7-1.1-2.5
		c-0.5-1.2-1.1-2.4-1.6-3.6c-0.3-0.6-0.5-1.2-0.8-1.8c-0.2-0.6-0.5-1.2-0.7-1.8c-0.5-1.2-0.9-2.3-1.4-3.5c-1-2.5-1.9-4.9-3.2-7.1
		c-0.9-2.1-1.7-4.2-2.4-6.4c-0.7-2.1-1.4-4.1-2.2-6.1c-0.7-1.6-1.4-3.2-2.1-4.8c-0.1-0.2-0.2-0.5-0.3-0.7c-0.2-0.5-0.5-1.1-0.7-1.6
		c-0.9-2.2-1.8-4.5-2.7-6.8c-0.7-1.9-1.4-3.7-2.1-5.6c-0.1-0.2-0.2-0.4-0.2-0.6c-0.4-1.1-0.8-2.1-1.3-3.2c-0.1-0.3-0.2-0.6-0.3-0.8
		c-0.2-0.4-0.3-0.7-0.4-1.1c0-0.3,0-0.6,0-1c-0.3-0.3-0.5-0.5-0.7-0.6c-0.7-1.8-1.5-3.6-2.2-5.4c-0.7-1.9-1.5-3.8-2.2-5.7
		c-0.5-1.2-0.9-2.3-1.4-3.5c-1-2.8-2-5-3.3-6.9c0-0.1,0.1-0.2,0.1-0.3c-0.4-0.4-0.8-0.7-1.1-1.1c-1-1.1-2.2-2-3.7-2.9h0c0,0,0,0,0,0
		l0,0c-2.7-0.4-4.4-0.1-7,0.6c-4.3,2.2-5.6,2.9-7.9,8.2c-1,2.4-2.3,5.6-4,10.2c0,0.1-0.1,0.2-0.1,0.4c-0.2,0.7-0.5,1.4-0.8,2
		c-1.1,2.7-2.3,5.4-3.5,8.1c-1.6,3.3-3.1,6.4-4,9.8c-0.5,1.3-1,2.6-1.5,3.9c0,0-0.1,0-0.1-0.1v0c-0.1,0.4-0.2,0.7-0.3,1
		c-0.4,1.1-0.9,2.1-1.3,3.2c-0.1,0.2-0.2,0.3-0.2,0.5c-1,2.1-1.9,4-2.7,6c-1.4,3.2-2.8,6.4-4.1,9.7c-0.6,1.6-1.3,3.1-1.9,4.7
		c-0.2,0.5-0.4,1-0.7,1.5c-0.9,1.9-1.7,3.9-2.4,5.8c-0.3,0.7-0.5,1.3-0.8,2c-1.6,3.7-3.3,7.2-4.6,11c0,0,0,0,0,0
		c-0.5,1.5-1,3-1.3,4.5c-0.2,0.9-0.3,1.9-0.5,2.8c0,0,0,0,0,0h-1.6c-0.8,2.5-1.6,4.9-2.6,7.3c-1.1,2.5-2.2,5.1-3.2,7.6
		c-0.7,1.7-1.4,3.4-2.1,5c-1.9,4.4-3.8,8.8-5.2,13.3c-0.1,0.1-0.3,0.3-0.4,0.4c0,0.2,0.1,0.4,0.1,0.6c-0.4,1.4-0.9,2.7-1.6,4
		c-1.7,3.3-3.2,6.5-4.6,9.9c-0.5,1.2-0.9,2.3-1.4,3.5c-0.2,0.6-0.5,1.2-0.7,1.8c-0.8,2-1.7,4.1-2.5,6.1c-1.5,3.6-3,7.2-4.5,10.9
		c-0.8,2.1-1.6,4.1-2.5,6.1c-2.5,5.8-4.8,11.8-7.2,17.7c-1.8,4.5-3.5,9-5.7,13.3c-0.9,1.7-1.6,3.3-2.3,5c-0.4,1-0.9,2-1.3,3
		c-0.5,1.2-0.9,2.3-1.4,3.5c-0.2,0.6-0.5,1.2-0.7,1.8c-0.4,1.1-0.9,2.2-1.4,3.3c-0.6,1.2-1.2,2.4-1.8,3.6c-0.2,0.6-0.3,1.1-0.4,1.6
		c-0.3,0.7-0.6,1.3-0.8,2h-0.2c-0.4,1.3-0.9,2.5-1.4,3.8c-1.5,3.7-3.1,7.3-4.5,11c-1.7,4.5-3.4,8.9-5.4,13.3
		c-2.8,6.1-5.5,12.3-8.1,18.6c0,0,0,0,0,0c-1.3,2.4-1.3,2.4-1.9,3.9c-0.2,0.5-0.4,1.1-0.6,1.6c-0.3,0.8-0.6,1.7-0.9,2.5
		c-0.3,0.7-0.7,1.3-1,2c-0.7,1.3-0.7,1.3-1.3,2.7c-0.6,1.6-0.8,2.5-0.7,3.6c-1,2.7-2.1,5.4-3.3,8.1c-0.6,1.3-1.2,2.5-1.7,3.8
		c0,0.1-0.1,0.1-0.1,0.2c-0.3,0.7-0.6,1.4-1,2.1c-0.3,0.7-0.6,1.4-0.9,2c0,0.1-0.1,0.2-0.1,0.3c-1.1,2.6-2.2,5.2-3.3,7.9
		c-0.6,1.5-1.2,2.9-1.8,4.4c-0.2,0.6-0.5,1.1-0.7,1.7c-0.8,2-1.7,4-2.5,6c-0.6,1.5-1.2,3-1.8,4.4c-1.9,4.6-3.8,9.2-5.7,13.8
		c-0.9,2.1-1.7,4.2-2.6,6.2c-0.4,1-0.8,2-1.2,3c-1.9,4.6-3.8,9-5.5,13.6c-2,5.2-3.9,11.1-6.6,16.3h-0.1c-0.3,0.6-0.6,1.2-0.9,1.8
		c-0.1,0.2-0.2,0.4-0.4,0.6c-1.3,2.2-2.8,4.2-4.6,5.9l-0.6-0.3v0.8c-0.4,0.4-0.8,0.7-1.2,1c0,0-0.1,0.1-0.1,0.1
		c-3.3,1.9-6.5,3.6-9.9,5.1c-4.3,1.7-8.6,2.8-13.1,3.9c-0.9,0.2-1.8,0.4-2.6,0.6c-0.2,0-0.4,0.1-0.6,0.1c-0.6,0.1-1.2,0.2-1.8,0.4
		c-0.1,0-0.1,0-0.2,0c0,0,0,0,0,0c-0.3,0.1-0.7,0.1-1,0.2c-0.8,0-1.9,0.2-3.8,0.7c-1.5,0.2-2.8,0.4-4,0.6c-0.2,0-0.4,0.1-0.6,0.1
		c-0.8,0-1.6,0.2-2.6,0.7c-0.3,0.3-0.5,0.6-0.7,0.9c-0.1,0.1-0.2,0.2-0.3,0.2c-0.4,0.3-0.8,0.6-1.2,1c-1.2,2.8-1.5,4.9-1.5,7.9
		c0,0.6,0,1.2,0.1,1.8c0,3.2-0.5,5.8,1.9,8.2c3.4,0.5,3.7,0.6,10.3-0.3c0.9-0.1,2-0.2,3.1-0.4c4.6-0.6,9.3-1,14-1.3
		c1.1-0.1,2.2-0.1,3.3-0.1c2.1-0.1,4-0.1,6-0.3c19.9-0.8,40,0.2,59.9,1.3c6.2,0.3,12.5,0.6,18.7,0.8c1.1,0,2.1,0.1,3.1,0.1
		c3.1,0.1,6.3,0.2,9.4,0.3c0,0,0-0.1,0-0.1c0.1,0,0.2,0,0.3,0c0.8-2.4,0.8-2.4,1-5.1c0-1.1,0.1-2.1,0.1-3.2c0.1-3.8,0-5.6-1.9-8.9
		c-1.9-1.6-3.1-2.4-4.9-2.8c0,0-0.1,0-0.1,0c-0.7-0.2-1.5-0.3-2.4-0.5c-1.2-0.1-2.4-0.3-3.6-0.4c-0.9-0.1-0.9-0.1-1.7-0.2
		c-0.7-0.1-1.4-0.2-2.1-0.4c-1.3-0.2-2.5-0.6-3.8-1c-2.2-0.8-2.2-0.8-4.5-1.1c-0.3,0-0.5,0-0.6-0.1c-0.1,0-0.1,0-0.2-0.1
		c-4.9-1.3-9.9-2.6-14-5.6c-0.8-0.6-0.8-0.6-1.5-1.2c-2.1-0.7-2.1-0.7-4-1.6c-0.6-1.7-0.8-3.2-0.9-5c0-0.6,0-1.2,0-1.8
		c2-11.4,2.1-12,6.4-21.6c0.1,0.1,0.2,0.2,0.3,0.4c1.7-5,3.6-9.6,5.8-14.3c1.1-2.2,1.8-3.7,1.9-5.5c2.6-6.5,5.2-12.9,7.7-19.4
		c1.5-3.7,2.9-7.5,4.4-11.2h0.2c0.7-2,1.5-4,2.2-6c0.8-2,1.6-4,2.4-6.1c0.9-2.1,1.8-4.2,2.7-6.3c0.6-0.9,1.1-2.3,2-4.9
		c0.4-1.1,0.4-1.1,0.8-2.3c0.2-0.6,0.4-1.1,0.6-1.7c1.9-4.9,3.7-9.8,5.5-14.7c0.1-0.4,0.3-0.8,0.4-1.2h132.7v-0.2
		c1.8-0.1,3.6-0.2,5.4-0.4c1.2-0.1,2.4-0.3,3.5-0.3c0,0,0.1,0,0.1,0c5,8.7,5,8.7,7.9,18.6c0.7,1.9,1.4,3.7,2.1,5.6
		c0.3,0.9,0.7,1.8,1,2.8c1.7,4.5,3.3,9,5,13.4c0.2,0.6,0.5,1.2,0.7,1.8c0.6,1.4,1.1,2.8,1.7,4.2c1,2.4,2,4.7,2.9,7.1c0,0,0,0,0,0.1
		c0.2,0.7,0.4,1.3,0.6,2c0.5,1.7,0.8,2.6,1.5,3.5c0.2,0.6,0.5,1.3,0.7,1.9c0,0.3,0,0.6,0.1,0.9c0,0.5,0.1,0.9,0.3,1.5
		c0.3,0.6,0.5,1.3,0.8,1.9c0.3,0.7,0.6,1.4,0.9,2.1c0.4,1,0.8,1.9,1.2,2.9c0.6,1.5,1.2,3,1.8,4.4c0.7,1.6,1.3,3.2,2,4.8
		c0.5,2,1,3.6,1.8,5c0.1,0.2,0.1,0.4,0.2,0.5c0.8,2.4,1.7,4.8,2.7,7.1c0.8,1.8,1.6,3.6,2.4,5.5c0.3,1.1,0.7,2.2,1,3.2h0.3
		c0.3,0.8,0.6,1.6,0.8,2.4c0.2,0.6,0.4,1.2,0.6,1.8c0.1,0.7,0.2,1.4,0.5,2.2c0.4,0.9,0.6,1.8,0.9,2.7c0.8,3.5,1.2,6.9,0.9,10.8h-1.6
		c-0.3,0.5-0.5,1.1-0.8,1.6c-0.3,0.3-0.5,0.6-0.8,0.9c-1.5,1.4-2.5,2.3-3.4,2.9c-0.9,0.6-1.8,1-2.9,1.4c-1.1,0.4-2.5,0.8-4.5,1.4
		c-1,0.3-1,0.3-2,0.6v0.1c-0.8,0.2-1.6,0.5-2.4,0.7c-0.9,0.1-2.3,0.5-5.1,1.2c-1,0.2-1.3,0.3-2,0.4c-2.7,0.5-5.4,1-8,1.7
		c-0.3,0-0.6,0-1,0.1c-0.6,0.2-1.3,0.4-1.9,0.6c-1.9,0.6-1.9,0.6-3.6,1.4c-1.6,1.3-2.3,2-2.8,4c-0.1,0.8-0.1,1.5-0.2,2.3l-0.9-0.4v4
		c0.3-0.5,0.5-1,0.8-1.5c0,0.2,0,0.4,0,0.7c-0.1,3.7,0.3,7.3,2.4,10.5c3.3-0.6,6.5-0.9,9.8-1.1c1,0,1,0,1.9-0.1
		c2.1-0.1,4.2-0.2,6.3-0.3c1.1-0.1,1.1-0.1,2.2-0.1c5.4-0.2,10.7-0.5,16-0.7c0.7,0,1.4-0.1,2.1-0.1c31.7-1.3,63.4-1.1,95,0.7
		c0.6,0.1,1,0.2,1.8,0.3c0.6,0,1.2,0.1,1.8,0.1c0.7,0,1.4,0.1,2,0.1c0.7,0,1.4,0.1,2.1,0.1c4.2,0.2,8.4,0.5,12.6,0.5
		c0.1,0,0.2,0,0.3,0c0.7,0,1.4,0,2.1,0c0.2,0,0.3,0,0.5,0c0.5,0,1,0,1.5-0.1c0.3,0,0.7,0,1,0c0,0,0,0,0,0c0,0,0,0,0,0
		c0.3-0.3,0.4-0.4,0.6-0.7c0,0,0.1-0.1,0.1-0.1c0,0,0-0.1,0-0.1c0.2-0.6,0.2-1.6,0.3-4.4c0-0.6,0-1.2,0-1.8
		C778.5,748.2,778.6,745.4,777.6,742.4z M496.3,551.6c1.5-3.9,2.9-7.8,4.4-11.7c0.4-1,0.7-1.9,1.1-2.8c1-2.6,2-5.3,3-7.9
		c0-0.1,0.1-0.1,0.1-0.2c0.3-0.8,0.3-0.9,0.6-1.5c0.2-0.5,0.4-0.9,0.6-1.4c1.4-3.2,2.7-6.4,4-9.7c1.5-4,3-7.9,4.7-11.8
		c2-4.6,3.9-9.4,5.7-14.1c1.6-4.1,3.2-8.1,4.8-12.2c0.9-2.2,1.8-4.5,2.7-6.7c0.1-0.2,0.1-0.3,0.2-0.5c1.4-3.3,2.8-6.6,4.1-10
		c1.6-4.4,3.3-8.8,5-13.1c0.2-0.5,0.4-1,0.6-1.5c0.6-1.4,1.2-2.9,1.7-4.3c0.2-0.5,0.4-0.9,0.6-1.4c0.3-0.7,0.7-1.4,1-2.2
		c0.1-0.5,0.3-0.9,0.3-1.3c1.5-4,2.8-8.1,3.9-12.3c0.1-0.3,0.3-0.5,0.5-0.7c0.2-0.1,0.4-0.1,0.6-0.2c0.7,0,1.4,0,2.2,0
		c0.1,0.3,0.2,0.6,0.3,0.9c0,0.9,0.2,1.3,0.7,2.6c0.1,0.1,0.1,0.3,0.2,0.4c0.4,1.5,0.9,2.9,1.4,4.4c0.2,0.7,0.5,1.3,0.7,2
		c2.5,7.2,2.5,7.2,9.6,24.8h0c1,2.5,1.9,5,2.8,7.5c0,0,0,0,0,0c0.6,1.8,1.2,3.7,1.9,5.5c0.4,1,0.8,2.1,1.2,3.1
		c0.9,2.5,1.7,4.9,2.7,7.2c0.6,1.3,1.2,2.6,2,3.9c0.1,0.1,0.2,0.1,0.3,0.2c0.3,0.2,0.6,0.3,0.8,0.5c0,0.1,0.1,0.2,0.1,0.4
		c-0.4,1.4-0.4,2.4,0.1,4c0.3,0.7,0.6,1.3,0.9,2c0.3,0.7,0.6,1.4,0.9,2.2c1.8,4.1,3.5,8.1,5,12.3c0.5,1.5,1.1,3,1.6,4.5
		c0.1,0.7,0.2,1.3,0.4,2.1c0.3,0.7,0.6,1.2,0.9,1.8c0,0.1,0,0.1,0.1,0.2c0.3,0.8,0.6,1.5,0.8,2.2c0.3,0.8,0.6,1.7,0.9,2.5
		c0.3,0.9,0.7,1.7,1,2.6c1.8,4.7,3.6,9.4,5.4,14.1c0.6,1.6,1.3,3.2,1.9,4.7c0.3,0.7,0.6,1.4,0.8,2.1c0.6,1.5,1.1,3.1,1.7,4.6
		c0.2,0.6,0.4,1.1,0.6,1.7c1.4,3.8,2.9,7.7,4.3,11.5c0.8,2.1,1.6,4.1,2.3,6.2c0.2,0.5,0.4,1,0.5,1.5c0.3,1,0.7,1.9,1,2.8
		c0.6,1.6,1.1,2.9,1.8,4.1c0,0.2,0.1,0.3,0.1,0.5c-0.2,0-0.4,0-0.5,0.1c-0.3,0-0.6-0.1-0.9-0.1c-0.6,0-0.9,0-1.2,0
		c-2.6-0.2-5.2-0.4-7.6,0.8c-2.2,0.1-4.4,0.1-6.6,0.1c-1.6,0-3.1,0-4.7,0c-2.2,0-4.3,0-6.5,0c0,0,0,0,0-0.1
		c-10.4-0.7-20.6-0.9-31-0.9c-1.7,0-3.3,0-5,0c-4.3,0-8.7,0-13.1,0c-4.6,0-9.1,0-13.6,0c-8.8,0-17.6,0-26.4,0c-1,0-1.9,0-2.8,0v-3.1
		c0,0,0-0.1,0-0.1h0.8c0,0,0,0,0,0h0c0.1-0.9,0.2-1.9,0.3-2.8c0.2-0.5,0.4-1,0.6-1.5c0.2,0.1,0.4,0.2,0.7,0.3c0.5-1.3,1.1-2.7,1.6-4
		c1.2-2.8,2.3-5.5,3.4-8.2c0.7-1.9,1.4-3.8,2.1-5.6C496,552.2,496.1,551.9,496.3,551.6z"/>
	<path class="st0" d="M806.1,859.2c0.2-0.1,0.4-0.2,0.7-0.3c0.2,0,0.5-0.1,0.7-0.2c0.7-0.2,1.4-0.4,2.1-0.6c2-0.6,2.2-0.6,3.6-1.2
		c0.1,0,0.2-0.1,0.3-0.1c0.3-0.8,0.5-1.6,0.8-2.4h0h-1.6v-1.6c0,0,0,0,0,0l0,0l0,0c0,0,0,0,0,0c-0.9,0-1.3,0-1.8,0
		c-1.5,0-2.9,0.1-4.4,0.1c-0.6,0-1.2,0.1-1.8,0.1c-1.6,0-3.2,0-4.7,0.3c-6.2,0.1-12.4-0.1-18.7-0.5c-0.7,0-0.7,0-1.4-0.1
		c0,0,0,0,0,0l0,0l0,0c-0.3,1.1-0.5,2.1-0.8,3.2c0.4,0.3,0.8,0.5,1.2,0.7c1.3,0.9,1.6,0.9,2.9,1.2c1.1,0.2,2.3,0.4,3.4,0.7
		c0.3,0.1,0.5,0.2,0.7,0.2c0.2,0.1,0.4,0.2,0.7,0.3c1.7,3.1,1.8,6,1.8,9.4c0,0.7,0,1.4,0,2.2c0,0.2,0,0.5,0,0.7
		c-0.2,3.3-0.2,6.7-0.3,10c0,1,0,1.9,0,2.8c0,3.4,0,6.7,0.2,10c0,0.8,0,1.6,0,2.3c0,4.6,0,9.3,0,14c0,10.1,0,20.1-0.1,30.2
		c-4.2,0.4-6.9,0.7-10.4,3.2c0.5,0.8,1.1,1.6,1.6,2.4c2.8,0.2,2.8,0.2,5.6,0c2.7-0.9,2.7-0.9,5.7-0.9c0.6,0,1.1,0,1.7,0
		c1.8,0,3.5,0,5.3,0c1.2,0,2.5,0,3.7,0c2.9,0,5.7,0,8.6,0c0.8,0,1.6,0,2.3,0c-0.9-1.9-1.2-3-3.1-4c-2.7-0.8-4.5-1.2-6.5-3.2
		c-1.3-17-1.3-17-0.8-33.9c0-0.7,0-1.4,0-2.1c0.1-5.4,0.1-10.7,0.2-16.1c0-1.9,0.1-3.8,0.1-5.6c0-2.8,0.1-5.5,0.1-8.2
		c0-0.9,0-1.7,0-2.5c0-0.8,0-1.6,0-2.4c0-1.1,0-1.1,0-2.2c0-1.9,0-1.9,0.3-3.6C805,860.3,805.5,859.7,806.1,859.2z"/>
	<path class="st0" d="M926.4,540.8C926.4,540.8,926.4,540.8,926.4,540.8C926.4,540.8,926.4,540.7,926.4,540.8L926.4,540.8z"/>
	<path class="st0" d="M739,867.8c-0.5-0.2-1-0.4-1.4-0.6v-1.6c0,0-0.1,0-0.1-0.1c-2.1-1.8-4.1-3.3-6.2-4.6
		c-10.9-7.4-23.5-7.6-36.8-7.5c-3.4,0-6.9,0.1-10.3,0.1c-0.9,0-1.7,0-2.5,0c-6,0.1-12,0-18-0.4c-2-0.1-4-0.3-6-0.4l-0.1,0l-0.8,0.8
		c0,0.5,0.1,1.1,0.1,1.6c0,0,0,0,0,0c0,0,0,0,0,0c0.7,1.6,0.7,1.6,2.2,2.4c1.9,0.5,3.6,0.9,5.3,1.7c0.2,0.1,0.4,0.2,0.6,0.3
		c0,0,0,0,0,0c0.5,0.3,1,0.6,1.5,0.9c1,1.7,1.4,2.6,1.7,3.5c0,0.2,0,0.4,0,0.6c-0.1,0.6-0.1,1.2-0.2,1.8c0.1,0,0.3,0.1,0.4,0.1
		c0,0.4,0,0.8,0,1.3c0,0.7,0,1.4,0,2.2c0,2.4,0,4.8,0,7.2c0,1.7,0,3.4,0,5.2c0,4.5,0,9-0.1,13.5c0,4.6-0.1,9.3-0.1,14
		c0,10-0.1,20.1-0.2,30.2c-0.6,0.1-1.2,0.2-1.8,0.3c-0.8,0.1-1.6,0.3-2.4,0.4c-0.3,0-0.5,0.1-0.8,0.1c-0.1,0-0.2,0-0.4,0
		c-2.7,0.3-3.7,0.6-6,2.2c0.5,1.1,1.1,2.1,1.6,3.2c0,0,0.1,0,0.1,0c0,0.1,0.1,0.1,0.1,0.2c8.6-0.4,17-0.9,25.6-0.8
		c6.1,0,12.1,0,18.2-0.2c0.9,0,1.7-0.1,2.6-0.1c5.7-0.2,11-0.3,16.4-2.2c0.9-0.4,1.8-0.7,2.8-1.1c1.6-0.6,3.3-1.3,4.9-2v0h0v-1.6
		h2.4c0,0,0.1,0,0.1-0.1c2.8-1.6,5.3-3.6,7.4-5.9c2.2-2.2,4.1-4.6,5.9-7.3c6.2-10.3,8.7-23.8,5.8-35.6
		C748.4,882.4,745.9,871.8,739,867.8z M721.8,935.2c-1.3-0.1-1.6,0-3.9,0.9c-3.7,1.8-7.4,2.9-11.5,3.1c-1.1,0-2.1,0-3.1,0
		c-1.1,0-2.3,0-3.4,0c-1.8,0-3.6,0-5.4,0c-3.6,0-7.2,0-10.7-0.1c-0.4-0.4-0.4-0.4-0.8-0.8c-0.3,0.1-0.7,0.2-1,0.3
		c-0.1-0.1-0.2-0.1-0.4-0.2c-0.1-0.8-0.2-1.5-0.3-2.3c0-1,0-2-0.1-3c0-1.4-0.1-2.8-0.1-4.2h0.5v-21.6h-0.8c0,0,0,0,0,0
		c-0.1-6.2-0.1-12.4-0.1-18.6c0-2.1,0-4.2,0-6.3c0-3.1,0-6.2,0-9.3c0-1,0-1.9,0-2.9c0-0.9,0-1.8,0-2.7c0-0.6,0-1.1,0-1.7
		c0,0.2,0.1,0.5,0.1,0.7h0.8c0-2.6-0.4-4.8,0.8-7.2c2,0,4.1,0,6.1,0c0.8,0,1.7,0,2.5,0c0.8,0,1.6,0,2.5,0c0.8,0,1.6,0,2.4,0
		c2,0,3.8,0,5.8,0.4c0.5,0.1,1,0.3,1.5,0.4c1.6,0.3,3.2,0.7,4.8,1c0.6,0.1,1.2,0.3,1.8,0.4c3.8,0.8,6.9,1.6,10.1,3.8
		c2.5,2,2.5,2,4.4,3c0.4,0.2,0.8,0.4,1.2,0.5c0,0,0,0,0,0v1.6c1.4,2,2.7,3.5,4.5,4.7c0.6,0.9,1,1.6,1.4,2.4c0.3,1.3,0.7,3,1.3,5.4
		c0,0.1,0,0.1,0,0.2h0c0,0,0,0,0,0.1h1.6c0,0.1,0,0.2,0.1,0.3c0.6,5.6,0.8,11.2,0.9,16.9c0,1.2,0,1.2,0,2.3c0,3.5,0,6.9-0.2,10.4
		c-0.9,7.4-3.4,13.5-9.3,18.3c-1.5,1.1-1.5,1.1-2.6,2.2c0,0.2,0,0.4,0,0.6C722.8,934.6,722.3,934.9,721.8,935.2z"/>
	<path class="st0" d="M412.7,854.3c-1.6-0.8-1.6-0.8-4.1-1c-1.6-0.1-1.6-0.1-3.2-0.1c-1.2,0-2.3-0.1-3.5-0.1
		c-1.8-0.1-3.6-0.1-5.5-0.2c-1.2,0-2.4-0.1-3.6-0.1c-0.6,0-1.1,0-1.7-0.1l0,0c-2.7-0.1-4.9-0.5-7.3,0.7c0.1,0.5,0.1,1,0.1,1.5
		c0.3,0.9,0.5,1.3,0.8,1.6c0.3,0.4,0.8,0.6,1.7,1c0.8,0.2,1.5,0.4,2.2,0.6c0.8,0.2,1.5,0.4,2.2,0.6c0.6,0.1,1.1,0.3,1.6,0.4
		c0.6,2.6,0.8,4.5,0.3,7.1c-0.3,0.8-0.6,1.7-0.8,2.5c-1.1,3.4-2.3,6.7-3.5,10.1c-1.6,4.4-3.2,8.7-4.5,13.2
		c-1.2,4.2-2.7,8.4-4.3,12.6c-1.5,3.8-2.7,7.5-3.7,11.4c-0.4,2-1,3.4-2,4.7h-0.6c-1.2-2.3-2.3-4.6-3.3-7.1c-0.3-0.8-0.6-1.6-0.8-2.4
		c-0.3-0.9-0.6-1.9-0.9-2.8c-0.5-1.5-1-3-1.5-4.5c-0.7-2.1-1.4-4.2-2.2-6.3c-1.5-4.3-2.9-8.6-4.4-12.9c-0.5-1.5-1-3-1.6-4.6
		c-1.7-5-3.4-10.1-5.5-15c-1.1-2.6-2-5.2-2.7-8c-0.8-3-0.8-3.4-3.6-5.2l0-0.1c-2.4,3.8-3.9,7.4-5.1,11.8c-0.2,0.6-0.3,1.3-0.5,1.9
		c-1,2.9-1.9,5.7-2.7,8.6c0,0.2-0.1,0.3-0.2,0.5c-0.1-0.1-0.2-0.2-0.3-0.3c-0.2,1.4-0.5,2.7-0.9,4c-0.2,0.6-0.4,1.2-0.6,1.7
		c-2,4.9-3.7,9.7-5.3,14.7c-1.3,4.2-2.7,8.2-4.5,12.2c-1,2.1-1.7,4-2.4,6.2c-0.2,0.8-0.4,1.6-0.6,2.4c-0.2,0.8-0.4,1.7-0.6,2.5
		c-0.1,0.6-0.3,1.2-0.4,1.8h-2.4c-0.3-0.8-0.6-1.6-0.9-2.4c0-0.5-0.1-0.9-0.3-1.7c-0.3-0.6-0.5-1.3-0.8-1.9
		c-0.3-0.7-0.6-1.4-0.8-2.1c-2.3-5.5-4.5-11.1-6.2-16.9c-0.9-3-1.8-5.8-3-8.7c-3.5-8.5-7-17.2-8-26.3c3.6-0.9,6.5-1.9,9.6-4
		c-0.5-1.1-1.1-2.1-1.6-3.2h0c0,0,0,0,0,0h-33.6c-0.5,1.1-1.1,2.1-1.6,3.2c0,0,0,0,0,0l0,0c1.7,0.9,3.2,1.6,5.1,2.1
		c0.6,0.1,1.3,0.3,1.9,0.4c0.7,0.1,1.3,0.3,1.9,0.4c0.5,0.1,1,0.2,1.4,0.3c0,0,0,0,0,0v1.6c0.4,0.6,0.8,1.3,1.1,1.9
		c0.8,2.6,1.6,5.2,2.7,7.6c4,9.4,4,9.4,7.3,19.2c0.5,1.4,1,2.8,1.5,4.3c0.5,1.4,1,2.9,1.5,4.3c0.8,2.5,1.7,5,2.6,7.4
		c0.2,0.3,0.3,0.7,0.5,1c0.5,1.3,1,2.6,1.6,3.9c3.2,8.1,3.2,8.1,5.8,16.3c0.3,1,0.6,1.9,0.9,2.8h0.5c0.5,1.3,1.1,2.6,1.5,3.9
		c0.9,3,1.8,5.9,3.2,8.7c0,0.1,0.1,0.1,0.1,0.2c0,0,0,0,0,0.1c0.8,1.8,1.8,3.4,3.5,4.8c0.4-0.3,0.7-0.5,1.1-0.8h0.5
		c0.2-0.6,0.5-1.1,0.7-1.7c0.1-0.2,0.1-0.3,0.2-0.5c2.4-5.9,4.4-11.8,6.3-17.8c0.2-0.7,0.5-1.5,0.7-2.2c0.2-0.6,0.4-1.2,0.6-1.8
		c0.3-1.1,0.7-2.1,1.1-3.2c1.5-3.4,2.8-6.6,3.7-10.2c0.6-2.5,1.2-4.9,1.9-7.4c1.6-2.4,1.6-2.4,2.2-4.3c1.4-6,2.7-13.1,7.4-17.3
		c0.3,1.3,0.5,2.6,0.8,3.9h0c0,0,0,0,0,0.1h1.5c-0.4,0.7-0.4,0.8-0.8,1.5c0,0,0,0,0,0c0,0,0,0,0,0c0.5,0.3,1,0.5,1.6,0.8
		c-0.4,0.8-0.4,0.8-0.8,1.6c0.1,0.2,0.2,0.5,0.2,0.7c0.1,0.3,0.2,0.8,0.3,1.4c0.1,0.2,0.2,0.5,0.4,0.7c0,0,0,0.1,0,0.1
		c0.7,1.8,1.4,3.5,2,5.3c0.3,0.9,0.3,0.9,0.6,1.8c0.2,0.6,0.4,1.3,0.7,1.9c0.5,1.4,0.9,2.7,1.4,4c0.5,1.4,1,2.9,1.5,4.3
		c3.6,10.2,7.1,20.4,10.9,30.5c0.4,1,0.7,1.9,1.1,2.9c0.8,2.4,0.8,2.4,1.6,4c1.6,0.8,1.6,0.8,4,0.8c2-5.3,4-10.5,5.9-15.8
		c1.2-3.4,2.4-6.9,3.8-10.2c1.9-4.5,3.4-9.1,4.8-13.8c0.5-1.5,0.9-3.1,1.4-4.6c0.3-0.9,0.3-0.9,0.6-1.9c0.4-1.1,0.7-2.2,1.2-3.2
		c1.6-3.1,2.9-6.1,4-9.5c0.3-1.1,0.7-2.2,1-3.3c0.2-0.6,0.3-1.1,0.5-1.6c0.6-1.9,1.2-3.7,1.8-5.6c0.3-0.8,0.5-1.5,0.8-2.3
		c1-3.2,2-6.4,3.2-9.6c1.8-3.8,4-5.7,8-7.2h3.2C412.3,856.5,412.5,855.5,412.7,854.3C412.8,854.4,412.7,854.4,412.7,854.3
		C412.7,854.4,412.7,854.3,412.7,854.3z"/>
	<path class="st0" d="M629.6,892.8c-1.6-7.8-4.2-16.2-9.3-22.4c-0.7-0.9-1.4-1.8-2.2-2.7c-0.4-0.5-0.9-0.9-1.3-1.3
		c-0.4-0.4-0.8-0.8-1.2-1.2c0-0.1,0-0.2,0-0.2c-3-4-9.8-7.5-15.5-9.2c-5.9-2.3-11.5-2.3-33.4-2.1c-0.1,0-0.2,0-0.2,0l0,0
		c-5.7,0-11.3,0-17-0.2c-0.2,0-0.4-0.1-0.6-0.1c-0.9,0-0.9,0-1.8-0.1c-0.7,0-1.3-0.1-1.9-0.1c-1,0-1,0-2-0.1c-2.3-0.1-4.7-0.2-7-0.3
		l0,0c-0.5,1.5-0.5,1.5-0.8,3.2c1.6,1.6,1.6,1.6,3.4,2.1c2.2,0.5,4.1,0.9,6.2,1.9c0,0.1,0.1,0.1,0.1,0.2c1.3,3.9,1.7,7.5,1.7,11.7
		c0,0.7,0,1.4,0,2c0,2.3,0,4.6,0,6.8c0,1.6,0,3.2,0,4.9c0,4.3,0,8.5,0,12.8c0,4.4,0,8.8,0,13.2c0,9.5,0,18.9-0.1,28.4
		c-1.6,0-1.6,0-3.8,0.7c-0.9,0.3-1.8,0.6-2.6,0.9c-1.6,0.5-3.1,1.1-4.7,1.6c0,0,0,0,0,0c0,0,0,0,0,0c0.5,1.1,1.1,2.1,1.6,3.2
		c9.8-0.4,19.5-0.9,29.4-0.8c6.6,0.1,13,0,19.6-0.5c0.8-0.1,1.6-0.1,2.3-0.2c0.5,0,1.1-0.1,1.6-0.2c0.2,0,0.4,0,0.6-0.1
		c0.6-0.1,1.1-0.1,1.7-0.2c3.9-0.6,7.8-1.5,11.5-3c0.8-0.1,1.7-0.5,3.7-1.5v-0.2c1.9-0.9,3.7-2,5.3-3.2c0.4-0.2,0.7-0.4,1.1-0.6
		c0.4-0.4,0.9-0.8,1.3-1.2c0.1-0.1,0.3-0.2,0.4-0.4c0.1-0.1,0.2-0.3,0.4-0.4c4.2-4.2,7.4-8.9,9.7-14.1c1.3-2.8,2.5-5.7,3.5-8.8
		l-0.4-0.2c0.7-2.9,1.2-5.9,1.4-8.9c0-0.2,0-0.4,0-0.6C630,898.6,629.9,895.7,629.6,892.8z M609.6,925.6c-0.6,0.7-1.1,1.4-1.7,2.1
		c-0.2,0.1-0.5,0.2-0.7,0.2c0,0.2,0,0.4,0.1,0.6c-0.7,0.8-1.4,1.6-2.1,2.4c-1.4,1.3-2.8,2.5-4.3,3.4c0,0-0.1,0-0.1,0v0
		c-0.5,0.3-1,0.7-1.5,1c-5.9,3.3-12.5,4.3-19.8,4.2c-1.8,0-3.6-0.1-5.3-0.1c-3.6,0-7.3,0-10.9-0.3c-0.8-0.5-1.6-1.1-2.4-1.6
		c-0.2,0.1-0.4,0.3-0.6,0.4c-0.5-0.5-0.5-0.9-0.8-2.2c0-0.7-0.1-1.5-0.1-2.2c-0.3-6.2-0.3-12.5-0.3-18.8c0-1.4,0-2.9,0-4.3
		c0-1.5,0-3,0-4.5c0.2-0.1,0.4-0.2,0.9-0.5v-8h-0.9c0-2.6,0-5.3,0-7.9c0-3.1,0-6.1,0-9.2c0-1.5,0-2.9,0-4.4c0-2.1,0-4.2,0-6.3
		c0-0.7,0-1.3,0-1.9c0-3.3-0.1-6.4,0.9-9.5l0,0c0.1,0,0.3,0,0.4,0c0.5,0.2,1,0.3,1.9,0.4c0.8,0,1.5,0,2.3,0.1c0.8,0,1.7,0.1,2.5,0.1
		c6.6,0.2,13.1,0.3,19.7,1.2c0.8,0.8,0.8,0.8,2.8,1.5c6.4,1.9,10,3.9,14.4,8.9c1.7,2,3.4,3.9,5.3,5.7c0.1,0.2,0.3,0.4,0.4,0.6
		c0.2,1.1,0.5,2.1,0.8,3.1c4.8,11.4,4.7,25.6,2.4,37.6c-0.9,2.2-1.6,3.6-1.3,5.5c-0.1,0.4-0.3,0.7-0.4,1
		C610.7,924.6,610.1,925.1,609.6,925.6z"/>
	<path class="st0" d="M508,924l-1.6-0.8c-1.6,0.8-1.6,0.8-2.7,2.5c-1.7,3.1-3.4,5.9-5.7,8.6c-5,4.2-8.5,5.3-15,5.5
		c-0.9,0-1.8,0-2.7,0.1c-3.4,0.1-6.6,0.1-9.8-0.1c-2.7-0.2-5.5-0.6-8.5-1c-0.6-0.1-1.2-0.2-1.8-0.3c-0.3-12.8-0.5-25.2-0.8-37.6
		h17.5c2,0,4,0,6,0c0.2,0,0.4,0,0.5,0h1.5c0,2.4,0,2.4,0.6,4.1c0.3,0.6,0.5,1.3,0.8,1.9c0.3,0.6,0.5,1.3,0.8,1.9
		c0.3,0.5,0.5,0.8,0.8,1.1c0.7,0.9,1.4,1.1,4.3,2.2c-0.1-3.2-0.2-6.4-0.2-9.6c0-1.3-0.1-2.6-0.1-3.9c0-1.9-0.1-3.9-0.1-5.8
		c0-0.6,0-1.2-0.1-1.8c0-1.7,0.3-3.9-0.3-5.6c0-0.2,0-0.4,0-0.5c-0.1-0.1-0.2-0.1-0.3-0.2c-0.1-0.2-0.3-0.4-0.4-0.6
		c-0.1,0-0.3,0.1-0.4,0.1c-0.1-0.1-0.3-0.1-0.4-0.2l0,0c-0.5,0.3-1.1,0.5-1.6,0.8c-0.2,0.7-0.4,1.3-0.6,1.9
		c-0.6,2.3-1.1,4.6-1.8,6.9c-0.9,1.1-1.3,1.5-1.9,1.7c-0.3,0-0.7,0-1.1,0.1c-0.2,0-0.4,0-0.7,0c-0.5,0-1,0-1.5,0c-0.3,0-0.7,0-1,0
		c-1.5,0-1.5,0-2.9,0c-1,0-2,0-3,0c-4.5,0-9,0.5-13.3-1c0-3.8,0-7.7,0-11.5c0-1.6,0-3.1,0-4.7c0-2.3,0-4.6,0-6.9c0-1.1,0-1.1,0-2.2
		c0-0.7,0-1.4,0-2.1c0-1,0-1,0-2c0-2.2,0.2-3.5,0.9-5.7c3,0.1,6.1,0.1,9.1,0.2c1.2,0,2.5,0.1,3.8,0.1c1.8,0,3.7,0.1,5.5,0.1
		c0.6,0,1.2,0,1.8,0c1.1,0,2.2,0,3.3,0.1c3.6,0.3,6.7,0.6,9.1,3.4c2.6,4.6,5.4,10.3,10.6,12.1c-0.4-2.4-0.9-4.9-1.3-7.3
		c-0.2-1-0.4-2-0.6-3c-0.2-1-0.4-2-0.5-3c-0.2-1-0.4-1.9-0.5-2.8c-0.5-2.6-0.5-2.6-1-4.7c-1.8-1.8-1.8-1.8-5.8-1.8
		c-0.6,0-1.2,0-1.7,0c-1.9,0-3.9,0-5.8,0c-1.4,0-2.8,0-4.2,0c-2.9,0-5.8,0-8.6,0c-3.8,0-7.5,0-11.3,0c-2.9,0-5.9,0-8.8,0
		c-1.4,0-2.8,0-4.2,0c-2,0-4,0-6,0c-0.6,0-1.2,0-1.8,0c-0.6,0-1.2,0-1.8,0l0,0c0,0,0,0,0,0l0.1-0.1c-2.9,0-4.1-0.2-4.6,1.2
		c-0.2,0.6-0.3,1.6-0.3,3c3.5,0.9,6.6,1.6,9.5,3.5c0.7,0.7,1,1.5,1.3,2.9c0,0.7,0,1.4,0,2.1c0,0.8,0,1.6,0,2.4c0,0.9,0,1.8,0,2.6
		c0,2.9,0.1,5.8,0.1,8.6c0,2,0,4.1,0.1,6.1c0.1,5.1,0.1,10.2,0.2,15.4c0,2.8,0,5.7,0.1,8.5c0,3.8,0.1,7.7,0.1,11.5
		c0,1.4,0,2.7,0,4.1c0,1.9,0,3.8,0,5.7c0,0.9,0,0.9,0,1.7c0,2.7,0.1,4.2-0.8,6.1c-0.1,0.1-0.2,0.1-0.3,0.2c0,0.1,0,0.1,0.1,0.2
		c-0.2,0.4-0.5,0.8-0.8,1.3c-3.2,1.1-6.5,2.2-9.7,3.2c0.3,1.1,0.5,2.1,0.8,3.2c0,0,0,0,0,0c0,0,0,0,0,0.1c10.5-0.5,21-0.8,31.4-0.9
		c1,0,1.9,0,2.9,0c4.4,0,8.8,0,13.2,0.3c3.8,0.3,7.5,0.7,11.3,0.5c1-0.1,2-0.2,3-0.2c1.8-0.1,3.6-0.3,5.4-0.5
		c0.8-0.8,0.8-0.8,1.2-2.3c0.4-1.9,0.8-3.8,1.2-5.7C507,933.1,507.7,928.8,508,924C508,924,508,924,508,924C508,924,508,924,508,924
		z M444,853.7v0.8h-4v-0.8H444z"/>
	<path class="st0" d="M1045.6,905.6h-32.8v0l0,0l0,0v0.2h-0.2v3.2c3.3,0.9,6.3,1.8,9.2,3.6c1,3.3,1.6,5.3,1.9,7
		c0,1.1,0.1,1.4,0.3,2.8c0,0,0,0,0,0c0,1.7-0.1,3.8-0.4,7.1c-0.1,1.2-0.1,1.2-0.1,2.3c-0.1,2.7-0.3,5.5-0.4,8.2
		c-1.6,0.3-3.1,0.5-4.6,0.8v0c-0.2,0-0.4,0-0.5,0c-1.7,0-3.3,0.1-4.9,0.1c-0.5,0-0.9,0-1.4,0c-0.8,0-1.6-0.1-2.4-0.1
		c-0.8,0-1.7-0.1-2.5-0.1c-7.1-0.6-13.7-2.3-19.7-7.1c-1.2-1.1-2.3-2-3.5-2.7c-1-1-1.9-2-2.7-3.1c-0.3-0.4-0.6-0.8-0.9-1.2
		c-2.3-2.3-3.5-4.8-4.7-7.7c-0.1-0.5-0.3-1.1-0.4-1.6c-0.2-0.9-0.4-1.8-0.6-2.6c-0.4-1.8-0.9-3.5-1.5-5.2c-2.4-12.3-1.2-25,4-36.5
		c3.4-6.1,9.4-10,15.8-12.2c0.6-0.2,1.2-0.4,1.8-0.6c3.6-1.6,6.5-1.9,10.5-1.9c1.2,0,1.2,0,2.4,0c3.2-0.1,6.3-0.1,9.4,0.4
		c8.4,3.2,12.1,7.7,15.9,15.7c0.3,0.7,0.6,1.3,0.9,2h1.6v1.6h2.4c-0.3-7-0.7-13.9-2.4-20.8h-1.6v-1.6c-7.9-2.5-15.8-3.4-24-3.4
		c-1,0-2,0-3,0l0,0c-4.5,0-8.5,0.2-12.2,0.8c0,0-0.1,0-0.1,0c-0.3,0-0.6,0.1-0.9,0.2c-5.9,1-11.4,3.1-17.2,7.3
		c-0.5,0.4-1.1,0.8-1.6,1.2c-3,2.1-5.3,4-7.5,6.9c-0.5,0.8-0.9,1.5-1.4,2.3c-4.5,6.6-8,13.9-9.4,21.8c-1.5,15.4,1,29.1,11,41.4
		c10,9.6,21.5,13.8,35.3,13.8c1.5,0,1.5,0,2.9,0c11-0.1,21.4-0.3,32.2-3.4c0,0,0-0.1,0-0.1c0.1,0,0.1,0,0.2-0.1c0-3-0.1-6.1-0.1-9.1
		c0-1.2,0-2.5,0-3.7c0-1.8,0-3.7,0-5.5c0-0.9,0-0.9,0-1.8c0-2.7,0-5.3,0.5-7.9c0.5-2,0.8-3.3,2.1-4.4c0.2-0.2,0.4-0.3,0.7-0.5
		c0.7-0.2,1.3-0.3,2-0.5c1-0.3,1-0.3,2-0.5c0.5-0.1,1-0.2,1.5-0.3c0,0,0-0.1,0-0.1c0.1,0,0.1,0,0.2,0
		C1046,907.6,1046,907.6,1045.6,905.6z"/>
	<path class="st0" d="M1080.8,862.4C1080.8,862.4,1080.8,862.4,1080.8,862.4L1080.8,862.4L1080.8,862.4z"/>
	<path class="st0" d="M929.6,852.8H904l0,0c0,0,0,0.1,0,0.1h0c-0.3,1.1-0.5,2.1-0.8,3.2c1,0.6,2.1,1.1,3.2,1.6
		c0.5,0.2,1.1,0.3,1.6,0.4c0.6,0.2,1.2,0.3,1.7,0.5c1.6,0.3,1.7,0.4,2.8,1.2c0.2,0.2,0.3,0.4,0.4,0.6c0.6,1.6,1,3.2,1.2,4.7
		c0,0.1,0,0.1,0,0.2c0,2.4,0,2.4,0.3,4.4c0,0,0.1,0.1,0.1,0.1c0,0.4,0,0.8,0,1.2c0,0.7,0,1.3,0,1.9c0,2.1,0,4.3,0,6.4
		c0,1.5,0,3,0,4.5c0,12.4-0.3,24.7-0.9,37.1c-1.1-1.2-1.1-1.2-2.4-2.4h-1.6c0-1.6,0-1.6-1.1-3.3c-0.5-0.7-1.1-1.4-1.6-2.1
		c-4.2-5.7-8.4-11.2-12.7-16.7c-0.7-0.9-1.4-1.8-2.1-2.7c-0.4-0.4-0.7-0.9-1-1.3c-2.3-3-4.5-6.1-6.6-9.3c-1.1-1.7-1.1-1.7-2-3h-1.6
		c0-1.6,0-1.6-0.9-2.8c-2.1-2.5-4.1-5-6-7.7c-0.5-0.6-0.9-1.3-1.3-1.9c-0.9-1.3-1.8-2.6-2.8-3.9c-2.6-3.8-5.1-8.1-9.2-10
		c-0.4-0.3-0.8-0.4-1.5-0.5c-0.1,0-0.2-0.1-0.3-0.1c-0.7,0-1.4-0.1-2-0.1c-5-0.3-10.1-0.3-15.2-0.2c0,0,0,0,0,0l0,0l0,0.1
		c-0.3,1.1-0.5,2.1-0.8,3.2c0.6,0.2,1.1,0.4,1.7,0.6c0.8,0.3,1.5,0.5,2.2,0.8c2.2,0.7,2.2,0.7,4.1,1.8c1,1.8,1.4,3.4,1.6,5.2
		c0.1,0.9,0,1.8,0,2.9c-0.1,2.1-0.1,2.1,0.1,3.8c0,0,0.1,0,0.1,0.1c0,1.5,0,3,0,4.6c0,1.5,0,2.9,0,4.4c0,3.1,0,6.1,0,9.2
		c0,3.9,0,7.9,0,11.8c0,3.1,0,6.2,0,9.3c0,1.5,0,3,0,4.4c0,8.4,0,16.7-0.9,25c-1.3,0.4-2.7,0.9-4,1.4c-0.6,0.2-1.1,0.4-1.7,0.6
		c-1,0.4-2,0.8-3,1.2c0,0,0,0,0,0.1c0,0-0.1,0-0.1,0c0.3,1.1,0.5,2.1,0.8,3.2c2.6,0,5.2,0,7.7,0c1.1,0,2.1,0,3.2,0
		c1.1,0,2.1,0,3.1,0c1,0,2,0,3,0c3.5,0,6.7-0.2,10.2-0.9v-0.1c0,0,0,0,0.1,0v-0.8c-2.5-3.2-5.2-4.1-9-5.2c-0.5-0.1-1-0.3-1.5-0.4
		c-0.1-0.9-0.1-0.9-0.1-1.7c-0.1-1.1-0.1-1.1-0.2-2.2c-0.1-1.4-0.2-2.5-0.5-3.6c0-0.1,0-0.2,0-0.3c0-0.1-0.1-0.1-0.1-0.2
		c-0.2-0.5-0.3-1-0.6-1.5h-0.1c-0.1-0.3-0.1-0.7-0.1-1.4c0-0.6,0-1.2,0-1.8c0-0.3,0-0.7,0-1c0.2-1.8,0.3-3.7,0.3-5.6
		c0-0.6,0-1.3,0-1.9c0-0.4,0-0.8,0-1.1h0.8v-21.6h-0.8c0.8-0.8,0.8-0.8,0.9-3c0-0.9,0-1.8,0-2.7c0-1.6,0-3.2,0-4.8H856
		c0-0.1,0-0.1,0-0.2c0.9-2,1.3-3,1.5-4.6h0.1v-1.5c0-1,0-2.4,0-4.1v-3.8c6.3,6.7,6.4,6.8,11.9,14.3c0.6,0.8,1.1,1.5,1.7,2.2
		c0,0,0,0,0,0.1c0.3,0.4,0.6,0.8,0.9,1.2c0.2,0.2,0.4,0.4,0.5,0.6c0.2,0.3,0.4,0.5,0.6,0.8c2.6,3.3,5.2,6.7,7.6,10.2
		c1,1.4,2,2.8,3,4.2c2.1,2.1,3.8,4,5.3,6.6c1,1.7,1,1.7,1.9,3h1.6c0,2.1,0,2.1,3.2,6.4h1.6c1.3,4.1,1.3,4.1,11.3,16.5
		c0.8,1,0.8,1,1.5,1.9c3,3.8,5.5,7.8,10.4,8.8c0-8.4,0-16.9,0-25.4c0-4.3,0-8.6,0-13c0-4.2,0-8.5,0-12.7c0-1.6,0-3.2,0-4.8
		c0-2.3,0-4.6,0-6.9c0-0.7,0-1.4,0-2.1c0-3.2-0.1-6.2,0.5-9.4c0.2-0.7,0.3-1.2,0.4-1.8c0,0,0.1,0,0.1,0c0.1-1.1,0.1-1.1,0.1-2.2
		c0.1-1,0.1-1.9,0.2-2.9c0.1-1.8,0.3-3.5,0.4-5.3c0.2-0.6,0.4-1.1,0.6-1.3c0.3-0.4,0.7-0.6,1.8-0.9c0.7-0.2,1.3-0.4,2-0.6
		c0.7-0.2,1.3-0.4,2-0.6c0.5-0.2,1-0.3,1.5-0.5c0,0,0,0,0,0c0,0,0,0,0.1,0C930,854.8,930,854.8,929.6,852.8z M856.8,910
		c0-2.2,0-4.3,0-6.4c0-0.7,0-1.3,0-2c0-2.1,0-4.2,0-6.4c0,0,0,0,0,0V910z M912.8,853.6v0.8H908v-0.8H912.8z M914.4,920.8
		c0.3,0.8,0.5,1.6,0.8,2.4h-1.6C913.9,922.4,914.1,921.6,914.4,920.8z"/>
	<path class="st0" d="M1179.6,468.5c0.8-6.1,1-12.3,0.6-18.6c0.3-3.1-0.7-8.7-3.4-23.5h-0.3c-3.1-12.7-8.2-24.6-15.8-35.5
		c-0.5-0.7-1-1.4-1.5-2.1c-1-1.6-2.1-3.2-3.2-4.8c-1.2-0.4-1.2-0.4-2.4-0.8c0-2.3,0-2.3-4.2-6.6c-0.1-0.1-0.1-0.1-0.2-0.2
		c-4.1-4.6-9.3-8.9-14.6-12.5c-3.6-2.9-7.9-5.2-11.7-7c-1.1-0.5-1.1-0.5-2.1-0.9c-5.9-2.9-11.7-5.4-18.1-7.3
		c-0.9-0.3-1.8-0.5-2.7-0.7c-9.2-2.7-18.8-4.8-28.5-5.8V342c-1.4-0.1-2.8-0.2-4.2-0.3c-0.6,0-1.1-0.1-1.7-0.1l0,0
		c-1.7-0.1-3.3-0.4-4.9-0.3c-3.7-0.2-8.1-0.3-14.9-0.3c-2.3-0.1-4.5-0.2-6.7-0.2c-2.4-1-4.4-0.9-14.3,0.2c-1.8,0-3.7,0-5.5,0
		c0-0.1,0-0.1-0.1-0.2l0,0c-8-0.1-16-0.1-24,0.1c0,0,0-0.1-0.1-0.1c-0.3,0-0.6,0.1-0.9,0.1c-1.2,0-2.4,0.1-3.6,0.1c-7,0-14,0-21,0
		c-0.6,0-1.1,0-1.6,0c-15.6,0-31.1-0.1-46.7-0.6c-3.9-0.2-7.9-0.3-11.8-0.4c-1.7,0-3.4-0.1-5.1-0.2c-1.5,0-3.1-0.1-4.6-0.1
		c-0.5,0-1.1,0-1.6-0.1c-0.8-0.3-2-0.3-4.8-0.3c-1,0-2,0.1-3,0.1v-1.6c-1.6,0-3.1-0.1-4.7-0.1c-0.1,0-0.2,0-0.3,0
		c-0.3,0-0.6-0.1-1-0.1c-1.4,0-1.4,0-2.8,0l0,0c-0.6,0-1.1,0-1.6,0l0.1-0.1c0,0-0.1,0-0.1,0l0-0.2c-1.9,0-2.8,0-4.2,1
		c-0.3,0.1-0.6,0.3-0.9,0.5c-0.9,1.5-0.9,1.5-1.2,3.6c0,0.8,0,1.7,0.1,2.5c0.1,3.3,0.3,6.5,1,9.8h1.6v1.6c0.8,0.5,1.6,1.1,2.4,1.6
		c0,0,0,0,0-0.1c1.6,1.1,2.6,1.5,5.5,2c1.4,0.3,2.9,0.6,4.4,0.8c0.8,0.1,1.5,0.2,2.3,0.3c0.8,0.1,1.6,0.2,2.3,0.4
		c1.1,0.2,1.1,0.2,2.2,0.3c2,0.3,2,0.3,3.6,0.3c4.7,0.8,9.3,1.9,13.8,3.7c0.6,0.3,1.3,0.6,1.9,1c0.1,0.1,0.2,0.1,0.3,0.2
		c0,0,0.1,0.1,0.1,0.1c1.2,0.7,2.3,1.6,3.3,2.5c5.1,8.4,7,11.8,7.6,17.3c0,0.3,0,0.7,0,1.3c0,1.5,0,3,0,4.5c0,1.1,0,2.2,0,3.2
		c0,2.8,0,5.6,0,8.5c0,2.9,0,5.9,0,8.8c0,5,0,9.8,0.1,14.7c0,1.5,0,2.9,0,4.4c0,0,0,0,0,0c0,5.7,0,11.3,0,17c0,6.2,0,12.4,0,18.6
		c0,0.9,0,1.8,0,2.7c0,1.8,0,3.6,0,5.4c0,3.6,0,7.1,0,10.7c0,0,0,0,0,0h0c0,2.1-0.1,4.3-0.1,6.4c0,0.9,0,1.8,0,2.6
		c0,1.3,0,1.3,0,2.6c0,0.8,0,1.7,0,2.5c0,1.6,0,2.5,0.2,3.5c0,7.4,0,14.8,0,22.1c0,3.5,0,7.1,0,10.6c0,0,0,0,0,0c0,0.5,0,0.8,0,1.2
		c0,0.9,0,1.9,0,2.8c0,0,0,0,0,0c0,8-0.1,15.8-0.1,23.8c0,4.1,0,8.1,0,12.2c0,4,0,8,0,11.9c0,1.5,0,3,0,4.5c0,2.2,0,4.3,0,6.5
		c0,0.7,0,1.3,0,2c0,1,0,1,0,1.9c0,1.4-0.1,2.5,0.2,3.4c0,0.1,0,0.3,0.1,0.4c0,4.3,0,8.5,0,12.8c0,1,0,2.1,0,3.1c0,0,0,0,0,0
		c0,0,0,0,0,0l0,0l0,0c0,0.7,0,1.4-0.1,2.1c0,1.4,0,1.4,0,2.8c0,1.5,0,2.9,0.1,4.1v22.1c0,0,0,0,0,0c-0.2,2.7-0.2,2.7,0,5.6
		c0,0,0,0,0,0v19.2c0,0,0,0,0,0c0,0.7,0,1.3-0.1,2c0,0.9,0,1.8,0,2.6c0,1.6-0.1,2.7,0.1,3.8v4c-0.1,2.9-0.1,5.8-0.1,8.7
		c0,1.2,0,2.4,0,3.6c0,3.3,0,6.7,0,10v0c-0.2,1.9-0.5,3.8-1,5.6c-0.5,1.5-1.1,3-2,4.6c-1.5,1.2-2.7,2.2-3.8,3
		c-2.3,1.6-4,2.8-5.6,3.7c-2.3,1.1-5,1.8-10.1,3.2c-0.5,0.1-1,0.3-1.5,0.4v0.1c-0.8,0.2-1.7,0.4-2.7,0.6c-0.9,0.2-1.8,0.4-2.7,0.6
		c-0.6,0.1-1.2,0.2-1.7,0.4c-0.1,0-0.1,0-0.2,0c0,0-0.1,0.1-0.1,0.1c0,0-0.1,0-0.1,0c-0.5,0-1,0.1-1.7,0.3c-1,0.1-2,0.3-3.1,0.5
		c-0.6,0.1-1.2,0.3-1.8,0.4c-0.6,0.1-1.3,0.3-1.9,0.4c-2.1,0.3-4,1-5.8,2.1c-0.3,0.2-0.7,0.4-1,0.6c-0.3,0.2-0.6,0.3-0.9,0.5
		c-1.6,2.7-1.8,4.4-1.7,7.5c0,0.6,0.1,1.2,0.1,1.9c0.1,2.2,0.1,4.4,0.2,6.6h0.4c0,0,0,0.1,0,0.1h1.2c0.4,1.1,0.4,1.1,0.8,2.3
		c0.1,0,0.2,0,0.4,0c0,0,0,0.1,0,0.1c2.8-0.2,5.5-0.3,8.3-0.5c1.2-0.1,2.3-0.1,3.5-0.2c1.7-0.1,3.3-0.2,5-0.3c0.6,0,1.1-0.1,1.7-0.1
		c3-0.2,5.9-0.4,8.9-0.7c20.2-1.7,20.2-1.7,40.6-1.6c2.7,0,5.4,0,8.2,0c20.6,0,41,0.3,61.6,1.6c10.7,0.7,21.3,1.2,32,1
		c0.1-1.9,0.1-3.9,0.2-5.8c0-0.8,0-1.6,0-2.4c0.1-2.9,0.2-5.8-0.2-8.6c-1-1.6-1.8-2.4-3-3c-0.7-0.4-1.5-0.8-2.6-1.2
		c-1.2-0.3-1.2-0.3-2.4-0.5c-4.5-0.9-9-1.7-13.5-2.4c-0.4-0.1-0.8-0.1-1.2-0.2c-1.9-0.3-3.7-0.6-5.6-1.1c-0.7-0.2-1.5-0.4-2.2-0.7
		c-1.8-0.8-1.8-0.8-3.9-1.2c-2.8-0.4-5.4-1-8-1.7c-1.9-0.6-3.8-1.4-5.7-2.3c-0.6-1.1-1.7-1.6-5.6-3.1c-0.5-0.4-0.9-0.7-1.4-1.1
		c-2.6-1.7-2.6-1.7-4.8-4c-1.6-5.5-2.6-8.7-3-11.6c-0.1-0.8-0.1-1.6-0.2-2.5c-0.1-1.5-0.1-3-0.3-4.4c0-1.1,0-2.4,0.1-3.9h0.2
		c0-0.7,0-1.4,0-2.1c0-0.9,0-1.8,0-2.7c0-1.6,0-3.2-0.1-4.8c-0.2-0.2-0.4-0.4-0.5-0.5c0-0.7,0-1.4,0-2.1c0-3.2,0-6.3,0-9.5
		c0-3.3,0-6.7,0-10.1c0-6.4,0-12.7,0-19.1c0-7.3,0-14.6,0-21.9c0-15.8,0-31.4,0-47.2c7.5-0.2,15-0.3,22.5-0.5
		c2.8-0.1,5.7-0.1,8.5-0.2c8.8,0.1,17.7,0.1,26.6-0.3c3.6-0.1,7.3-0.4,10.9-0.7c7.5-0.5,15-1.4,22.4-3c1.1-0.2,1.1-0.2,2.1-0.5
		c4.6-1,9.1-2.3,13.5-3.9c0.3-0.1,0.6-0.2,0.9-0.3c1.9-0.7,3.8-1.4,5.6-2.2c0.1,0,0.1,0,0.2,0c0.2,0,0.3,0.1,0.5,0.1
		c0.1-0.1,0.1-0.1,0.2-0.1c2.1-0.3,4.5-1.6,12.8-6.1c0,0,0,0,0.1,0c0.4-0.2,0.8-0.4,1.2-0.6c0.6-0.3,1.1-0.6,1.7-0.8
		c2.2-1.1,4.2-2.2,6.2-3.4c0,0,0.1,0,0.1-0.1c0,0,0,0,0,0c1.4-0.9,2.8-1.8,4.2-2.8c0.4-0.3,0.9-0.7,1.3-1c0.4-0.3,0.9-0.6,1.3-0.9
		c0.5-0.4,1.1-0.7,1.6-1.1c0.7-0.5,1.3-0.9,2-1.4c2.3-1.5,4.4-2.9,6.4-4.8c0.4-0.6,0.7-1.1,1-1.6c0.2-0.2,0.5-0.4,0.8-0.7h0.6
		c2.1-1.9,4-4,5.9-6c3.4-3.5,6.5-7.2,9.5-11.2c0.3-0.5,0.7-0.9,1-1.4c0.5-0.6,1-1.3,1.4-1.9c0.6-0.8,1.2-1.6,1.8-2.4
		c1.6-2.2,3.2-4.4,4.5-6.8c1.4-2.4,2.7-4.8,3.8-7.4c0.3-0.7,0.4-0.9,0.5-1.2c0.6-1.1,1-2.2,1.4-3.3c0.7-1.9,1.4-3.7,2.1-5.6h0.2
		c0,0,0,0,0,0h0C1176.7,484.6,1178.7,476.8,1179.6,468.5z M875.6,340.3v4.7h-0.4v-4.7H875.6z M889.6,338.6v0.8h-1
		c-0.1-0.1-0.2-0.2-0.2-0.3c-0.2-0.2-0.4-0.3-0.6-0.5H889.6z M985.6,547.8c0.7-8.3,0.9-16.5,0.9-24.7c0-1.5,0-3,0-4.6
		c0-4.2,0-8.3,0-12.5c0-4.4,0-8.8,0-13.3c0-7.4,0-14.9,0-22.3c0-8.6,0-17.3,0-25.9c0-7.5,0-15,0-22.5c0-4.5,0-8.9,0-13.4
		c0-4.2,0-8.5,0-12.7c0-1.6,0-3.1,0-4.7c0-2.2,0-4.4,0-6.5c0-1,0-1,0-2c0-2.3-0.1-4.5-0.2-6.7h0.1c-0.1-0.8-0.2-1.6-0.3-2.4
		c-0.1-1-0.3-2.1-0.4-3.1c0.1-0.2,0.1-0.4,0.2-0.6c0.3-0.7,0.5-1.2,0.8-1.6c0,0,0.1,0,0.1-0.1c6.4,0.1,12.8,0.2,19.3,0.2
		c3.3,0,6.7,0.1,10,0.1c3.3,0,6.6,0.1,9.8,0.1c1.2,0,2.5,0,3.7,0.1c1.8,0,3.6,0,5.4,0.1c0.6,0,1.1,0,1.7,0
		c10.2,0.1,20.5,2.7,30.1,6.9l5.8,2.9c3.9,2.2,7.6,4.6,11.1,7.4c1.8,1.5,3.4,2.9,5.5,4c0.1,0,0.2,0.1,0.3,0.1
		c0.4,0.5,0.7,0.9,1.1,1.4c0.1,1.1,0.4,1.5,1.9,3.3c0.1,0.2,0.1,0.4,0.2,0.5h1.6c0.1,0.1,0.1,0.2,0.2,0.3c0,1.3,0.1,1.4,1.2,3.2
		c0.8,1.1,0.8,1.1,1.5,2.2c1.5,2.2,1.5,2.2,2.9,3.9h0.7c0.2,1.9,1.1,3.4,4.1,8.7h0.4c0.1,0.2,0.2,0.5,0.3,0.7c0,1.7,0.1,1.9,0.6,3.5
		c0.4,1,0.7,1.9,1.1,2.9v0.1c0.1,0.3,0.2,0.5,0.3,0.8c1,2.9,1.7,5.7,2.4,8.7c0.1,0.4,0.1,0.7,0.2,1.1c0.2,1.2,0.4,2.3,0.6,3.5
		c0.2,0.9,0.3,1.8,0.5,2.7h0.1c0.4,1.9,0.7,3.7,1.1,5.6c0.1,0.6,0.2,1.1,0.3,1.7c0.3-0.1,0.6-0.2,0.8-0.2c0.5,3.9,0.7,7.7,0.8,11.6
		c-0.7,1.3-0.7,1.5-0.8,3.4c0,0.9,0,1.7,0,2.5c0,0.9,0,1.8,0,2.7c0,1,0,1.9,0,2.8c0,1.9,0,3.8,0,5.7c-1.4,13.3-4.5,26.4-9,38.8h-1.6
		c-0.2,1-0.3,1.7-0.4,2.2c0,0,0,0-0.1,0c0,0,0,0,0,0c0,0-0.1,0-0.1,0c-0.9,1.6-1.9,3.2-3,4.6c-0.4,0.1-0.8,0.3-1.2,0.4
		c-0.1,0.4-0.2,0.7-0.2,1.1c-1.2,1.2-2.4,2.4-3.6,3.6c-0.1,0-0.1,0.1-0.2,0.1v0.1c-0.7,0.8-1.4,1.6-2.1,2.5
		c-0.1,0.1-0.2,0.2-0.3,0.3c-1.2,1.2-2.5,2.4-3.8,3.5c-0.1,0.1-0.2,0.1-0.3,0.2c-0.7,0.4-1.4,0.8-2.1,1.2c-4,2.8-8.1,5.1-12.4,7.1
		c-0.1,0-0.2,0.1-0.3,0.1c-4.8,2.1-9.5,3.8-14.4,5.2c-1.1,0.3-2.2,0.6-3.3,0.8c-0.8,0.2-0.8,0.2-1.6,0.3c0,0,0,0.1,0,0.1
		c-0.9,0.2-1.7,0.4-2.6,0.6c-1.2,0-2.4,0.2-3.8,0.5c-5.8,1.3-11.4,1.7-17.3,1.9c-0.9,0-1.8,0.1-2.7,0.1v0v0c0,0,0,0,0,0v0.3
		c-4.8-0.2-9.6-0.2-14.4-0.2c0,0,0,0,0-0.1v0c-3.9-0.1-8.7-0.5-12.8,0.3c-3.7,0.1-7.4,0.3-11.2,0.5c0.2,0.1,0.4,0.3,0.6,0.4
		c-0.9,0-1.2,0-2.5-0.2C986.3,548.9,985.9,548.3,985.6,547.8z"/>
	<polygon class="st0" points="895.2,736 895.2,736 895.2,736 	"/>
	<polygon class="st0" points="926.4,679.2 926.4,679.2 926.4,679.2 	"/>
	<rect x="856.8" y="924.8" class="st0" width="0.8" height="4.8"/>
</g>
</svg>
